<?xml version="1.0" standalone="no"?>
<!DOCTYPE svg PUBLIC "-//W3C//DTD SVG 20010904//EN"
 "http://www.w3.org/TR/2001/REC-SVG-20010904/DTD/svg10.dtd">
<svg version="1.0" xmlns="http://www.w3.org/2000/svg"
 width="400.000000pt" height="400.000000pt" viewBox="0 0 400.000000 400.000000"
 preserveAspectRatio="xMidYMid meet">

<g transform="translate(0.000000,400.000000) scale(0.100000,-0.100000)"
fill="#000000" stroke="none">
<path d="M710 2765 l0 -455 155 0 155 0 0 455 0 455 -155 0 -155 0 0 -455z
m240 239 l0 -84 -85 0 -85 0 0 88 0 87 85 -3 85 -3 0 -85z m0 -223 l0 -90 -85
1 -85 0 0 89 0 89 85 0 85 0 0 -89z m0 -221 l0 -90 -85 0 -85 0 0 90 0 90 85
0 85 0 0 -90z"/>
<path d="M800 2785 l0 -65 65 0 65 0 0 65 0 65 -65 0 -65 0 0 -65z"/>
<path d="M800 2565 l0 -65 65 0 65 0 0 65 0 65 -65 0 -65 0 0 -65z"/>
<path d="M1220 2711 l0 -361 138 0 c214 0 293 20 370 93 131 124 132 398 2
527 -75 76 -130 91 -337 98 l-173 5 0 -362z m260 114 l0 -85 -85 0 -85 0 0 85
0 85 85 0 85 0 0 -85z m210 0 l0 -85 -85 0 -85 0 0 85 0 85 85 0 85 0 0 -85z
m-210 -220 l0 -85 -85 0 -85 0 0 85 0 85 85 0 85 0 0 -85z m210 0 l0 -85 -85
0 -85 0 0 85 0 85 85 0 85 0 0 -85z"/>
<path d="M2000 2710 l0 -360 230 0 230 0 0 70 0 70 -145 0 -145 0 0 80 0 80
130 0 130 0 0 70 0 70 -130 0 -130 0 0 70 0 70 140 0 140 0 0 70 0 70 -225 0
-225 0 0 -360z"/>
<path d="M2692 2710 l-121 -361 87 3 86 3 19 63 19 63 130 -3 130 -3 20 -62
19 -63 85 0 c77 0 85 2 80 18 -3 9 -57 170 -119 357 l-114 340 -100 3 -101 3
-120 -361z m308 0 l0 -90 -90 0 -90 0 0 90 0 90 90 0 90 0 0 -90z"/>
<path d="M2840 2710 l0 -70 70 0 70 0 0 70 0 70 -70 0 -70 0 0 -70z"/>
<path d="M2926 2205 c-94 -33 -136 -98 -136 -208 0 -74 8 -96 49 -140 35 -39
63 -52 162 -77 112 -28 129 -40 129 -89 0 -50 -26 -73 -90 -79 -66 -6 -137 13
-242 66 -5 2 -8 -32 -8 -76 l0 -79 73 -21 c101 -29 172 -36 247 -22 83 15 123
40 157 98 22 37 27 58 27 116 2 138 -46 190 -211 231 -114 28 -143 45 -143 83
0 52 20 66 102 70 55 3 88 -1 135 -17 34 -12 66 -21 71 -21 7 0 5 140 -3 148
-1 1 -37 9 -79 17 -96 19 -189 19 -240 0z"/>
<path d="M700 1850 l0 -360 85 0 85 0 2 245 3 246 67 -173 66 -173 58 0 58 0
63 165 c36 91 68 174 73 185 5 12 9 -80 9 -237 l1 -258 80 0 80 0 0 360 0 360
-108 0 -109 0 -73 -190 c-40 -105 -74 -189 -76 -188 -1 2 -31 80 -67 173 -36
94 -69 178 -72 188 -6 15 -22 17 -116 17 l-109 0 0 -360z"/>
<path d="M1592 1850 l-121 -361 87 3 86 3 19 63 19 63 130 -3 130 -3 20 -62
19 -63 85 0 c77 0 85 2 80 18 -3 9 -57 170 -119 357 l-114 340 -100 3 -101 3
-120 -361z m308 0 l0 -90 -85 0 -85 0 0 90 0 90 85 0 85 0 0 -90z"/>
<path d="M1798 1912 l-48 -3 0 -65 0 -64 65 0 65 0 0 64 c0 72 -1 73 -82 68z"/>
<path d="M2190 1851 l0 -361 85 0 85 0 0 125 0 125 98 0 c81 0 105 4 148 24
105 49 148 163 109 292 -17 57 -60 104 -120 131 -32 14 -76 18 -222 21 l-183
4 0 -361z m370 119 l0 -90 -90 0 -90 0 0 90 0 90 90 0 90 0 0 -90z"/>
<path d="M2400 1975 l0 -65 70 0 70 0 0 65 0 65 -70 0 -70 0 0 -65z"/>
<path d="M2940 1130 l0 -240 25 0 c25 0 25 1 25 87 l0 88 88 -88 c81 -81 90
-87 127 -87 l40 1 -97 92 -98 92 87 75 87 75 -32 3 c-35 4 -46 -3 -141 -86
l-61 -54 0 141 0 141 -25 0 -25 0 0 -240z"/>
<path d="M703 1123 l2 -228 33 -3 32 -3 0 183 c1 212 -12 214 113 -22 l82
-155 43 -3 42 -3 0 230 0 231 -30 0 -30 0 -2 -184 -3 -184 -98 184 -99 184
-43 0 -44 0 2 -227z"/>
<path d="M1550 1279 c0 -46 -2 -51 -20 -46 -16 4 -20 0 -20 -19 0 -17 6 -24
19 -24 18 0 20 -10 23 -125 4 -151 10 -161 106 -171 l62 -7 0 27 c0 23 -4 26
-36 26 -70 0 -74 7 -74 135 l0 115 55 0 c48 0 55 2 55 20 0 18 -7 20 -55 20
l-55 0 0 50 c0 49 -1 50 -30 50 -29 0 -30 -1 -30 -51z"/>
<path d="M1234 1226 c-88 -39 -119 -191 -56 -275 44 -60 144 -82 235 -52 31
11 37 17 37 41 l0 29 -36 -15 c-20 -8 -59 -15 -86 -16 -61 0 -98 24 -114 73
l-12 34 129 3 129 3 0 35 c0 45 -21 93 -54 123 -32 30 -123 39 -172 17z m141
-61 c14 -13 25 -33 25 -45 0 -19 -6 -20 -95 -20 -99 0 -105 3 -83 43 18 35 40
46 86 47 32 0 49 -6 67 -25z"/>
<path d="M2349 1217 c-53 -35 -71 -79 -67 -164 5 -112 54 -164 153 -164 63 0
91 14 129 65 29 38 30 178 3 219 -44 68 -151 89 -218 44z m154 -59 c27 -36 34
-125 14 -165 -22 -42 -41 -55 -82 -56 -52 -1 -86 36 -93 102 -5 61 1 89 29
125 18 23 27 27 67 24 35 -2 49 -9 65 -30z"/>
<path d="M2785 1228 c-11 -6 -26 -18 -32 -26 -11 -14 -13 -13 -13 6 0 18 -6
22 -30 22 l-30 0 0 -170 0 -170 29 0 29 0 4 126 c3 125 3 126 32 151 23 19 38
24 68 21 36 -3 38 -2 38 24 0 26 -3 28 -37 28 -21 0 -47 -6 -58 -12z"/>
<path d="M1806 1063 c24 -93 44 -169 44 -170 0 -2 15 -3 34 -3 l33 0 34 130
c19 72 36 130 39 130 3 0 21 -58 39 -130 l34 -130 33 0 c19 0 34 1 34 3 0 1
20 77 44 170 l44 167 -28 0 c-31 0 -35 -8 -76 -174 -10 -41 -20 -63 -24 -55
-4 8 -20 62 -36 122 l-28 107 -36 0 -35 0 -29 -112 c-16 -62 -32 -116 -35
-120 -4 -5 -15 22 -25 60 -45 172 -45 172 -76 172 l-28 0 44 -167z"/>
</g>
</svg>
