<?xml version="1.0" standalone="no"?>
<!DOCTYPE svg PUBLIC "-//W3C//DTD SVG 20010904//EN"
 "http://www.w3.org/TR/2001/REC-SVG-20010904/DTD/svg10.dtd">
<svg version="1.0" xmlns="http://www.w3.org/2000/svg"
 width="104.000000pt" height="122.000000pt" viewBox="0 0 104.000000 122.000000"
 preserveAspectRatio="xMidYMid meet">

<g transform="translate(0.000000,122.000000) scale(0.100000,-0.100000)"
fill="#000000" stroke="none">
<path d="M365 1181 c-103 -38 -169 -74 -214 -119 -54 -54 -114 -166 -105 -195
4 -12 2 -17 -4 -13 -7 4 -13 -11 -18 -39 -27 -180 60 -349 226 -440 38 -21 70
-42 70 -46 0 -15 117 -51 185 -56 126 -10 275 48 335 129 l24 33 -29 -25 -29
-25 21 30 c57 82 67 208 24 292 -17 34 -25 41 -46 38 -36 -3 -39 -9 -22 -42
37 -72 24 -190 -31 -267 -92 -127 -284 -152 -385 -48 -65 66 -84 157 -52 247
20 55 12 55 -16 -2 -16 -34 -24 -43 -27 -30 -2 10 9 44 25 75 23 48 40 65 100
104 59 39 84 50 140 57 l68 10 -95 -3 c-120 -3 -179 -27 -249 -100 -73 -78
-91 -173 -52 -276 26 -69 13 -56 -33 33 -30 60 -40 90 -44 145 -17 242 136
416 416 474 107 21 122 28 71 29 -19 0 -28 3 -20 6 9 4 0 12 -25 24 -50 24
-143 23 -209 0z m-185 -115 c0 -2 -8 -10 -17 -17 -16 -13 -17 -12 -4 4 13 16
21 21 21 13z m-40 -54 c0 -5 -12 -19 -27 -33 l-26 -24 19 33 c17 30 34 42 34
24z m-15 -73 c-40 -72 -56 -129 -57 -204 -1 -63 -2 -67 -11 -37 -18 58 15 182
71 270 25 39 23 17 -3 -29z m-35 -8 c0 -6 -4 -13 -10 -16 -5 -3 -10 1 -10 9 0
9 5 16 10 16 6 0 10 -4 10 -9z"/>
<path d="M675 846 c-81 -25 -155 -74 -155 -102 0 -7 -12 -22 -27 -34 -15 -11
-28 -29 -29 -38 -1 -9 -8 -31 -15 -49 -20 -50 -3 -86 44 -94 22 -3 37 -2 37 4
0 5 20 40 44 76 37 57 53 71 117 105 88 47 183 60 237 32 54 -28 63 -67 38
-164 -15 -61 -1 -71 33 -23 29 41 28 123 -2 176 -57 100 -200 150 -322 111z"/>
<path d="M440 90 l0 -70 50 0 50 0 0 70 0 70 -50 0 -50 0 0 -70z"/>
<path d="M590 141 c0 -14 8 -21 28 -23 25 -3 27 -7 30 -51 l3 -47 45 0 44 0 0
50 c0 47 2 50 25 50 18 0 25 5 25 20 0 19 -7 20 -100 20 -92 0 -100 -2 -100
-19z"/>
<path d="M868 144 c-89 -48 -34 -124 90 -124 56 0 60 2 64 25 5 23 3 24 -31
19 -48 -7 -82 15 -61 41 11 13 24 16 56 11 39 -5 41 -4 36 19 -4 23 -8 25 -66
25 -34 -1 -73 -7 -88 -16z"/>
</g>
</svg>
